<svg xmlns="http://www.w3.org/2000/svg" viewBox="0 0 344.09 21.31"><title>Recurso 3</title><g id="Capa_2" data-name="Capa 2"><g id="Capa_1-2" data-name="Capa 1"><path d="M170.06,21,180.3.35h.7L191.24,21H189.9l-2.2-4.48H173.6L171.4,21Zm4.12-5.66h12.94l-4.68-9.53-1.79-3.65c-.6,1.3-1.2,2.53-1.81,3.68Z"/><path d="M194.1,21V.35h9.51a5.43,5.43,0,0,1,3.86,1.36,4.42,4.42,0,0,1,1.45,3.38,4.41,4.41,0,0,1-.76,2.47,3,3,0,0,1-1.72,1.35,5,5,0,0,1,3.29,1.92,6.09,6.09,0,0,1,1.35,4,5.48,5.48,0,0,1-2.13,4.4A8.58,8.58,0,0,1,203.29,21Zm1.27-12.47h8.75a3.27,3.27,0,0,0,3.46-3.4,3.32,3.32,0,0,0-1.08-2.51,4,4,0,0,0-2.89-1h-8.24Zm0,11.26h7.92A7.3,7.3,0,0,0,208,18.34a4.41,4.41,0,0,0,1.74-3.55,5,5,0,0,0-1.41-3.66,5.65,5.65,0,0,0-4.18-1.43h-8.78Z"/><path d="M217.22,18.16a10.23,10.23,0,0,1-3.12-7.5,10.23,10.23,0,0,1,3.12-7.51,10.61,10.61,0,0,1,15,0,10.26,10.26,0,0,1,3.11,7.51,10.26,10.26,0,0,1-3.11,7.5,10.59,10.59,0,0,1-15,0ZM218.16,4a9.13,9.13,0,0,0-2.72,6.65,9.1,9.1,0,0,0,2.72,6.64,9.16,9.16,0,0,0,13.13,0A9.14,9.14,0,0,0,234,10.66,9.17,9.17,0,0,0,231.29,4a9.16,9.16,0,0,0-13.13,0Z"/><path d="M241.64,18.16a10.23,10.23,0,0,1-3.12-7.5,10.23,10.23,0,0,1,3.12-7.51A10.61,10.61,0,0,1,256.49,3l-.93.93a8.76,8.76,0,0,0-6.42-2.68A8.88,8.88,0,0,0,242.58,4a9.13,9.13,0,0,0-2.72,6.65,9.1,9.1,0,0,0,2.72,6.64,8.84,8.84,0,0,0,6.56,2.77A9,9,0,0,0,253.5,19a9.59,9.59,0,0,0,3.3-3V10.91h-5.31V9.7h6.59v6.71A10.84,10.84,0,0,1,254.26,20a10.58,10.58,0,0,1-12.62-1.8Z"/><path d="M259.35,21,269.59.35h.7L280.52,21h-1.33L277,16.48h-14.1L260.68,21Zm4.11-5.66h13l-4.68-9.53-1.79-3.65c-.61,1.3-1.21,2.53-1.81,3.68Z"/><path d="M283.39,21V.35h7.53a10.34,10.34,0,0,1,7.68,3,10,10,0,0,1,2.94,7.33A10,10,0,0,1,298.6,18a10.33,10.33,0,0,1-7.68,3Zm1.27-1.21h6.1a9.34,9.34,0,0,0,6.84-2.57,8.78,8.78,0,0,0,2.61-6.52,8.78,8.78,0,0,0-2.61-6.52,9.31,9.31,0,0,0-6.84-2.58h-6.1Z"/><path d="M307.84,18.16a10.23,10.23,0,0,1-3.12-7.5,10.23,10.23,0,0,1,3.12-7.51,10.6,10.6,0,0,1,15,0A10.23,10.23,0,0,1,326,10.66a10.23,10.23,0,0,1-3.12,7.5,10.57,10.57,0,0,1-15,0ZM308.77,4a9.16,9.16,0,0,0-2.71,6.65,9.13,9.13,0,0,0,2.71,6.64,9.18,9.18,0,0,0,13.14,0,9.14,9.14,0,0,0,2.72-6.64A9.17,9.17,0,0,0,321.91,4a9.18,9.18,0,0,0-13.14,0Z"/><path d="M328.44,17.87l.83-.92a8.75,8.75,0,0,0,6.93,3.12,10.63,10.63,0,0,0,3-.4,5.64,5.64,0,0,0,2.49-1.49,3.7,3.7,0,0,0,1.1-2.72,3.16,3.16,0,0,0-.37-1.54,3.52,3.52,0,0,0-.87-1.11,5.93,5.93,0,0,0-1.43-.83,13,13,0,0,0-1.6-.58l-1.87-.52a23.31,23.31,0,0,1-4.93-1.69,4.13,4.13,0,0,1-2.25-3.78,4.6,4.6,0,0,1,2.06-3.88A8,8,0,0,1,336.26,0a10.28,10.28,0,0,1,6.62,2.38l-.8,1a8.8,8.8,0,0,0-5.82-2.14,7,7,0,0,0-3.75,1.09,3.4,3.4,0,0,0-1.75,3.06A3.3,3.3,0,0,0,331,6.6a2.34,2.34,0,0,0,.74,1q.54.44.93.69a5.77,5.77,0,0,0,1.33.57c.63.22,1.09.36,1.35.43l1.57.44,2.15.59a14.78,14.78,0,0,1,1.89.71,5.87,5.87,0,0,1,1.69,1,5.14,5.14,0,0,1,1,1.42,4.39,4.39,0,0,1,.45,2,4.85,4.85,0,0,1-2.34,4.29,9.86,9.86,0,0,1-5.52,1.53A10.14,10.14,0,0,1,328.44,17.87Z"/><path d="M3.13,3.11A10.43,10.43,0,0,1,10.78,0,10.69,10.69,0,0,1,18,2.71L16.4,4.5a7.92,7.92,0,0,0-5.62-2.17A7.7,7.7,0,0,0,5,4.75a8.17,8.17,0,0,0-2.35,5.91A8.15,8.15,0,0,0,5,16.56,7.67,7.67,0,0,0,10.78,19a7.85,7.85,0,0,0,3.64-.87,8,8,0,0,0,2.81-2.41V11.42h-6.8L8,9.22H19.72v7.44a10.17,10.17,0,0,1-3.8,3.41,10.81,10.81,0,0,1-5.14,1.24A10.39,10.39,0,0,1,3.11,18.2,10.28,10.28,0,0,1,0,10.66,10.23,10.23,0,0,1,3.13,3.11Z"/><path d="M30.57.32h2.2L42.54,21H39.89L38,17H25.34l-1.92,4H20.81ZM37,14.87,33.54,7.59,31.66,3.25q-.93,2.46-1.86,4.38l-3.51,7.24Z"/><path d="M45.22.32h9.6A6.34,6.34,0,0,1,59,1.66,4.53,4.53,0,0,1,60.6,5.33a4.29,4.29,0,0,1-.7,2.33,3.42,3.42,0,0,1-1.63,1.43A5,5,0,0,1,61.38,11a5.7,5.7,0,0,1,1.26,3.7,5.59,5.59,0,0,1-2.14,4.59A8.77,8.77,0,0,1,54.82,21h-9.6ZM55,8.3a2.92,2.92,0,0,0,2.17-.79,2.7,2.7,0,0,0,.8-2,2.76,2.76,0,0,0-.86-2.09,3.43,3.43,0,0,0-2.43-.82H47.77V8.3Zm-.29,10.43a6.19,6.19,0,0,0,3.86-1.1A3.51,3.51,0,0,0,60,14.71a3.91,3.91,0,0,0-1.23-3,5,5,0,0,0-3.49-1.13H47.77v8.17Z"/><path d="M74.1.32h2.2L86.06,21H83.41L81.5,17H68.87L67,21H64.33Zm6.44,14.55L77.07,7.59,75.18,3.25q-.92,2.46-1.85,4.38l-3.51,7.24Z"/><path d="M88.75.32H97.2a9.13,9.13,0,0,1,6.54,2.2,7.29,7.29,0,0,1,2.33,5.55,7.4,7.4,0,0,1-1.24,4.18A7.13,7.13,0,0,1,101.35,15l4.88,6H103l-4.18-5.26c-.53.06-1.79.1-3.77.1H91.3V21H88.75Zm8.71,13.24A6,6,0,0,0,101.75,12a5.21,5.21,0,0,0,1.64-3.91,5.24,5.24,0,0,0-1.64-3.91,5.92,5.92,0,0,0-4.26-1.58H91.3v11Z"/><path d="M110,.32h7.85a10.56,10.56,0,0,1,7.83,3,10,10,0,0,1,3,7.34,10,10,0,0,1-3,7.34,10.55,10.55,0,0,1-7.83,3H110Zm7.69,18.41a8.16,8.16,0,0,0,6-2.28A7.81,7.81,0,0,0,126,10.66a7.81,7.81,0,0,0-2.29-5.79,8.17,8.17,0,0,0-6-2.29h-5.14V18.73Z"/><path d="M132.53.32h2.55V21h-2.55Z"/><path d="M139.93.32h2.49l9.89,12.83c.41.51.83,1.09,1.28,1.75s.79,1.18,1,1.56l.38.61V.32h2.56V21H155L145.42,8.58C145,8,144.47,7.34,144,6.64s-.87-1.26-1.12-1.66l-.38-.61V21h-2.56Z"/><path d="M162.4.32H165V21H162.4Z"/></g></g></svg>