<?xml version="1.0" encoding="utf-8"?>
<!-- Generator: Adobe Illustrator 22.1.0, SVG Export Plug-In . SVG Version: 6.00 Build 0)  -->
<svg version="1.1" id="Capa_1" xmlns="http://www.w3.org/2000/svg" xmlns:xlink="http://www.w3.org/1999/xlink" x="0px" y="0px"
	 viewBox="0 0 344.1 21.3" style="enable-background:new 0 0 344.1 21.3;" xml:space="preserve">
<style type="text/css">
	.st0{fill:#777777;}
</style>
<title>Recurso 2</title>
<g id="Capa_2_1_">
	<g id="Capa_1-2">
		<path class="st0" d="M170.1,21l10.2-20.6h0.7L191.2,21h-1.3l-2.2-4.5h-14.1l-2.2,4.5H170.1z M174.2,15.3h12.9l-4.7-9.5l-1.8-3.7
			c-0.6,1.3-1.2,2.5-1.8,3.7L174.2,15.3z"/>
		<path class="st0" d="M194.1,21V0.3h9.5c1.4-0.1,2.8,0.4,3.9,1.4c1,0.9,1.5,2.1,1.4,3.4c0,0.9-0.3,1.7-0.8,2.5
			c-0.4,0.7-1,1.1-1.7,1.4c1.3,0.2,2.5,0.9,3.3,1.9c0.9,1.1,1.4,2.5,1.4,4c0,1.7-0.8,3.3-2.1,4.4c-1.6,1.2-3.6,1.9-5.7,1.8H194.1z
			 M195.4,8.5h8.8c1.8,0.1,3.4-1.3,3.5-3.1c0-0.1,0-0.2,0-0.3c0-1-0.4-1.9-1.1-2.5c-0.8-0.7-1.8-1.1-2.9-1h-8.2V8.5z M195.4,19.8
			h7.9c1.7,0.1,3.4-0.4,4.7-1.5c1.1-0.8,1.8-2.2,1.7-3.6c0-1.4-0.5-2.7-1.4-3.7c-1.1-1-2.7-1.5-4.2-1.4h-8.8V19.8z"/>
		<path class="st0" d="M217.2,18.2c-2-2-3.2-4.7-3.1-7.5c0-2.8,1.1-5.5,3.1-7.5c4.1-4.1,10.9-4.1,15,0c2,2,3.2,4.7,3.1,7.5
			c0,2.8-1.1,5.5-3.1,7.5C228.1,22.3,221.4,22.3,217.2,18.2C217.2,18.2,217.2,18.2,217.2,18.2z M218.2,4c-1.8,1.8-2.8,4.2-2.7,6.6
			c0,2.5,0.9,4.9,2.7,6.6c3.5,3.6,9.3,3.7,13,0.2c0.1-0.1,0.1-0.1,0.2-0.2c1.8-1.7,2.7-4.1,2.7-6.6c0-2.5-0.9-4.9-2.7-6.7
			c-3.5-3.6-9.3-3.7-13-0.2C218.3,3.9,218.2,3.9,218.2,4L218.2,4z"/>
		<path class="st0" d="M241.6,18.2c-2-2-3.2-4.7-3.1-7.5c0-2.8,1.1-5.5,3.1-7.5c4.1-4.1,10.7-4.1,14.8-0.1l-0.9,0.9
			c-1.7-1.7-4-2.7-6.4-2.7c-2.5,0-4.9,1-6.6,2.8c-1.8,1.8-2.8,4.2-2.7,6.6c0,2.5,0.9,4.9,2.7,6.6c1.7,1.8,4.1,2.8,6.6,2.8
			c1.5,0,3-0.3,4.4-1.1c1.3-0.7,2.5-1.8,3.3-3v-5.1h-5.3V9.7h6.6v6.7c-1,1.5-2.3,2.7-3.8,3.6C250.1,22.3,245,21.6,241.6,18.2
			L241.6,18.2z"/>
		<path class="st0" d="M259.4,21l10.2-20.6h0.7L280.5,21h-1.3l-2.2-4.5h-14.1l-2.2,4.5H259.4z M263.5,15.3h13l-4.7-9.5L270,2.2
			c-0.6,1.3-1.2,2.5-1.8,3.7L263.5,15.3z"/>
		<path class="st0" d="M283.4,21V0.3h7.5c2.9-0.1,5.6,1,7.7,3c1.9,1.9,3,4.6,2.9,7.3c0.1,2.7-1,5.4-2.9,7.3c-2,2-4.8,3.1-7.7,3
			H283.4z M284.7,19.8h6.1c2.5,0.1,5-0.8,6.8-2.6c1.7-1.7,2.7-4.1,2.6-6.5c0.1-2.4-0.9-4.8-2.6-6.5c-1.8-1.8-4.3-2.7-6.8-2.6h-6.1
			V19.8z"/>
		<path class="st0" d="M307.8,18.2c-2-2-3.2-4.7-3.1-7.5c0-2.8,1.1-5.5,3.1-7.5c4.1-4.1,10.8-4.1,15,0c0,0,0,0,0,0
			c2,2,3.2,4.7,3.2,7.5c0,2.8-1.1,5.5-3.1,7.5C318.8,22.3,312.1,22.3,307.8,18.2C307.9,18.2,307.9,18.2,307.8,18.2L307.8,18.2z
			 M308.8,4c-1.8,1.8-2.7,4.2-2.7,6.6c0,2.5,0.9,4.9,2.7,6.6c3.5,3.6,9.4,3.7,13,0.2c0.1-0.1,0.1-0.1,0.2-0.2
			c1.8-1.8,2.8-4.1,2.7-6.6c0-2.5-0.9-4.9-2.7-6.6c-3.5-3.6-9.4-3.7-13-0.2C308.9,3.9,308.8,3.9,308.8,4z"/>
		<path class="st0" d="M328.4,17.9l0.8-0.9c1.7,2,4.3,3.2,6.9,3.1c1,0,2-0.1,3-0.4c0.9-0.3,1.8-0.8,2.5-1.5c0.7-0.7,1.1-1.7,1.1-2.7
			c0-0.5-0.1-1.1-0.4-1.5c-0.2-0.4-0.5-0.8-0.9-1.1c-0.4-0.3-0.9-0.6-1.4-0.8c-0.5-0.2-1.1-0.4-1.6-0.6l-1.9-0.5
			c-1.7-0.4-3.4-0.9-4.9-1.7c-1.4-0.7-2.3-2.2-2.2-3.8c0-1.6,0.8-3,2.1-3.9c1.4-1,3-1.5,4.7-1.5c2.4,0,4.8,0.8,6.6,2.4l-0.8,1
			c-1.6-1.4-3.7-2.2-5.8-2.1c-1.3,0-2.6,0.4-3.8,1.1c-1.1,0.6-1.8,1.8-1.8,3.1c0,0.4,0.1,0.8,0.2,1.2c0.2,0.4,0.4,0.7,0.7,1
			c0.4,0.3,0.7,0.5,0.9,0.7c0.4,0.2,0.9,0.4,1.3,0.6c0.6,0.2,1.1,0.4,1.4,0.4l1.6,0.4l2.1,0.6c0.6,0.2,1.3,0.4,1.9,0.7
			c0.6,0.2,1.2,0.6,1.7,1c0.4,0.4,0.7,0.9,1,1.4c0.3,0.6,0.5,1.3,0.5,2c0.1,1.7-0.8,3.4-2.3,4.3c-1.6,1-3.6,1.6-5.5,1.5
			C333.3,21.3,330.4,20.1,328.4,17.9z"/>
		<path class="st0" d="M3.1,3.1c2-2,4.8-3.2,7.6-3.1C13.4,0,16,0.9,18,2.7l-1.6,1.8c-1.5-1.4-3.5-2.2-5.6-2.2C8.6,2.3,6.5,3.2,5,4.8
			c-1.5,1.6-2.4,3.7-2.3,5.9c0,2.2,0.8,4.3,2.3,5.9c1.5,1.6,3.6,2.5,5.8,2.4c1.3,0,2.5-0.3,3.6-0.9c1.1-0.6,2.1-1.4,2.8-2.4v-4.3
			h-6.8L8,9.2h11.7v7.4c-1,1.4-2.3,2.6-3.8,3.4c-1.6,0.8-3.4,1.3-5.1,1.2c-2.9,0.1-5.7-1.1-7.7-3.1c-2-2-3.2-4.7-3.1-7.5
			C-0.1,7.8,1.1,5.1,3.1,3.1z"/>
		<path class="st0" d="M30.6,0.3h2.2L42.5,21h-2.7L38,17H25.3l-1.9,4h-2.6L30.6,0.3z M37,14.9l-3.5-7.3l-1.9-4.3
			c-0.6,1.6-1.2,3.1-1.9,4.4l-3.5,7.2H37z"/>
		<path class="st0" d="M45.2,0.3h9.6c1.5-0.1,3,0.4,4.2,1.3c1.1,0.9,1.7,2.3,1.6,3.7c0,0.8-0.2,1.6-0.7,2.3
			c-0.4,0.6-0.9,1.1-1.6,1.4c1.2,0.2,2.4,0.9,3.1,1.9c0.8,1,1.3,2.4,1.3,3.7c0.1,1.8-0.7,3.5-2.1,4.6c-1.6,1.2-3.6,1.8-5.7,1.7h-9.6
			V0.3z M55,8.3c0.8,0,1.6-0.2,2.2-0.8C57.7,7,58,6.3,58,5.5c0-0.8-0.3-1.5-0.9-2.1c-0.7-0.6-1.5-0.9-2.4-0.8h-6.9v5.7H55z
			 M54.7,18.7c1.4,0.1,2.7-0.3,3.9-1.1c0.9-0.7,1.5-1.8,1.4-2.9c0-1.1-0.4-2.2-1.2-3c-1-0.8-2.2-1.2-3.5-1.1h-7.5v8.2L54.7,18.7z"/>
		<path class="st0" d="M74.1,0.3h2.2L86.1,21h-2.6l-1.9-4H68.9L67,21h-2.7L74.1,0.3z M80.5,14.9l-3.5-7.3l-1.9-4.3
			c-0.6,1.6-1.2,3.1-1.8,4.4l-3.5,7.2H80.5z"/>
		<path class="st0" d="M88.8,0.3h8.4c2.4-0.2,4.7,0.6,6.5,2.2c1.5,1.4,2.4,3.5,2.3,5.5c0,1.5-0.4,2.9-1.2,4.2
			c-0.8,1.3-2.1,2.2-3.5,2.8l4.9,6H103l-4.2-5.3c-0.5,0.1-1.8,0.1-3.8,0.1h-3.8V21h-2.6V0.3z M97.5,13.6c1.6,0.1,3.1-0.5,4.3-1.6
			c1.1-1,1.7-2.4,1.6-3.9c0-1.5-0.6-2.9-1.6-3.9c-1.2-1.1-2.7-1.6-4.3-1.6h-6.2v11L97.5,13.6z"/>
		<path class="st0" d="M110,0.3h7.8c2.9-0.1,5.7,1,7.8,3c2,1.9,3.1,4.6,3,7.3c0.1,2.8-1,5.4-3,7.3c-2.1,2-4.9,3.1-7.8,3H110V0.3z
			 M117.7,18.7c2.2,0.1,4.4-0.7,6-2.3c1.5-1.5,2.4-3.6,2.3-5.8c0.1-2.2-0.8-4.3-2.3-5.8c-1.6-1.6-3.8-2.4-6-2.3h-5.1v16.1H117.7z"/>
		<path class="st0" d="M132.5,0.3h2.6V21h-2.6V0.3z"/>
		<path class="st0" d="M139.9,0.3h2.5l9.9,12.8c0.4,0.5,0.8,1.1,1.3,1.8s0.8,1.2,1,1.6l0.4,0.6V0.3h2.6V21H155l-9.6-12.4
			C145,8,144.5,7.3,144,6.6s-0.9-1.3-1.1-1.7l-0.4-0.6V21h-2.6L139.9,0.3z"/>
		<path class="st0" d="M162.4,0.3h2.6V21h-2.6V0.3z"/>
	</g>
</g>
</svg>
