<svg xmlns="http://www.w3.org/2000/svg" viewBox="0 0 243.91 213.9"><defs><style>.cls-1{fill:#eee;}</style></defs><title>Recurso 3</title><g id="Capa_2" data-name="Capa 2"><g id="Capa_1-2" data-name="Capa 1"><path class="cls-1" d="M97.29,158.67q-1.82,25.11-16.74,40.17T44.8,213.9q-19.92,0-33.49-15.06T.45,158.67A74.78,74.78,0,0,1,5,138.08q3.6-9.53,12.67-25.61L75.57,0h45.25L76.48,111.47Q99.09,124.54,97.29,158.67Zm123.09,0q-1.81,25.11-16.74,40.17T167.89,213.9q-19.92,0-33.49-15.06t-10.86-40.17a74.78,74.78,0,0,1,4.53-20.59q3.6-9.53,12.67-25.61L198.66,0h45.25L199.57,111.47Q222.18,124.54,220.38,158.67Z"/></g></g></svg>