<?xml version="1.0" encoding="utf-8"?>
<!-- Generator: Adobe Illustrator 22.1.0, SVG Export Plug-In . SVG Version: 6.00 Build 0)  -->
<svg version="1.1" id="Capa_1" xmlns="http://www.w3.org/2000/svg" xmlns:xlink="http://www.w3.org/1999/xlink" x="0px" y="0px"
	 width="32px" height="16px" viewBox="0 0 32 16" style="enable-background:new 0 0 32 16;" xml:space="preserve">
<style type="text/css">
	.st0{fill:#211915;}
</style>
<g transform="translate(0, 0)">
	<polygon class="st0" points="8,11.4 2.6,6 4,4.6 8,8.6 12,4.6 13.4,6 	"/>
</g>
<g transform="translate(16, 0)">
	<path class="st0" d="M12.7,11.3c0.9-1.2,1.4-2.6,1.4-4.2c0-3.9-3.1-7.1-7-7.1S0,3.2,0,7.1s3.2,7.1,7.1,7.1c1.6,0,3.1-0.5,4.2-1.4
		l3,3c0.2,0.2,0.5,0.3,0.7,0.3s0.5-0.1,0.7-0.3c0.4-0.4,0.4-1,0-1.4L12.7,11.3z M7.1,12.1c-2.8,0-5.1-2.2-5.1-5S4.3,2,7.1,2
		s5.1,2.3,5.1,5.1S9.9,12.1,7.1,12.1z"/>
</g>
</svg>
